# xmcd
#
# Track frame offsets:
# 150
# 23305
# 49348
# 69940
# 93996
# 125973
# 146709
# 173720
# 209986
# 228611
# 245581
#
# Disc length: 3654 seconds
#
# Revision: 1
# Processed by: cddbd v1.5.1PL0 Copyright (c) Steve Scherf et al.
# Submitted via: CedeCatalogueitor 2.6.0.6 http://personales.ya.com/cdcatalogueitor
#
DISCID=a30e440b
DTITLE=U2 - Vertigo World Tour San Diego 28-03-05
DYEAR=2005
DGENRE=
TTITLE0=Bullet The Blue Sky (The Hands That Built America)
TTITLE1=Running To Stand Still
TTITLE2=Zoo Station
TTITLE3=The Fly
TTITLE4=Elevation
TTITLE5=Pride (In The Name Of Love)
TTITLE6=Where The Streets Have No Name
TTITLE7=One
TTITLE8=All Because Of You
TTITLE9=Yahweh (Acústica)
TTITLE10=40
EXTD=
EXTT0=
EXTT1=
EXTT2=
EXTT3=
EXTT4=
EXTT5=
EXTT6=
EXTT7=
EXTT8=
EXTT9=
EXTT10=
PLAYORDER=
